<svg xmlns="http://www.w3.org/2000/svg" viewBox="0 0 540 540">
  <!-- Outer modified hexagon shape - approximate of CP logo -->
  <path d="
    M 148,20
    L 392,20
    L 516,144
    L 516,210
    L 534,210
    L 534,330
    L 516,330
    L 516,396
    L 392,520
    L 148,520
    L 24,396
    L 24,330
    L 6,330
    L 6,210
    L 24,210
    L 24,144
    Z
  " fill="#11C2DC"/>

  <!-- White vertical center divider -->
  <rect x="257" y="20" width="26" height="500" fill="white"/>

  <!-- White C (left half) -->
  <path d="
    M 250,118
    C 88,118 62,184 62,270
    C 62,356 88,422 250,422
    L 250,362
    C 148,362 130,326 130,270
    C 130,214 148,178 250,178
    Z
  " fill="white"/>

  <!-- White P (right half) - vertical bar + bump -->
  <path d="
    M 285,118
    L 285,422
    L 347,422
    L 347,310
    L 393,310
    C 462,310 498,284 498,214
    C 498,144 462,118 393,118
    Z
    M 347,178
    L 390,178
    C 424,178 432,197 432,214
    C 432,231 424,250 390,250
    L 347,250
    Z
  " fill="white"/>
</svg>
